<?xml version="1.0" encoding="utf-8"?>
<?xml-stylesheet type="text/xsl" href="rss1.xsl"?>
<rss version="2.0" xmlns:atom="http://www.w3.org/2005/Atom" xmlns:content="http://purl.org/rss/1.0/modules/content/" xmlns:dc="http://purl.org/dc/elements/1.1/" xmlns:media="http://search.yahoo.com/mrss/">
<channel>
 <title>Getty</title>
 <link>http://www.gettyimg.com/</link>
 <atom:link href="http://www.gettyimg.com/" rel="self" type="application/rss+xml" />

 
                <item>
                <title><![CDATA[【Cinema Center】MOVIE - The.Cutting.Edge.1992.1080p.PMTP.WEB-DL.DDP5.1.x264-Samuel]]></title>
                <link><![CDATA[https://sharemania.us/threads/the-cutting-edge-1992-1080p-pmtp-web-dl-ddp5-1-x264-samuel.230367/]]></link>
                <description><![CDATA[<article>
<blockquote class="messageText SelectQuoteContainer ugc baseHtml">
<div style="text-align: center"><b><span style="font-size: 26px">The Cutting Edge</span></b><br>
<img src="https://i.imgur.com/rl0Lb9P.jpg" class="bbCodeImage LbImage" alt="[​IMG]" data-url="https://i.imgur.com/rl0Lb9P.jpg" style=""><br>
<b><a href="https://i.imgur.com/1GwP9TT.jpg" target="_blank" class="externalLink" rel="nofollow">Alternate Artwork 1</a></b> | <b><a href="https://i.imgur.com/peaUVM3.jpg" target="_blank" class="externalLink" rel="nofollow">Alternate Artwork 2</a></b> | <b><a href="https://i.imgur.com/bFhdz3I.jpg" target="_blank" class="externalLink" rel="nofollow">Alternate Artwork 3</a></b> | <b><a href="https://i.imgur.com/pZBwZNn.png" target="_blank" class="externalLink" rel="nofollow">Alternate Artwork 4</a></b> | <b><a href="https://i.imgur.com/JJo0KHG.jpg" target="_blank" class="externalLink" rel="nofollow">Alternate Artwork 5</a></b> | <b><a href="https://i.imgur.com/jIzKjBw.jpg" target="_blank" class="externalLink" rel="nofollow">Poster 1</a></b> | <b><a href="https://i.imgur.com/Dys8vQb.jpg" target="_blank" class="externalLink" rel="nofollow">Poster 2</a></b><br>
<br>
COMEDY • 1992 • PG • 1H 41M<br>
<br>
<div class="bbCodeBlock bbCodeQuote">
<aside>
<blockquote class="quoteContainer"><div class="quote"><b><span style="font-size: 15px"><span style="font-family: 'Arial'">Description</span></span></b><br>
A hockey player teams up with a cantankerous figure skater.</div><div class="quoteExpand">Click to expand...</div></blockquote>
</aside>
</div>
<div class="bbCodeBlock bbCodeQuote">
<aside>
<blockquote class="quoteContainer"><div class="quote"><span style="font-family: 'Arial'"><span style="font-size: 15px"><b>Trailers</b></span></span><br>
<span data-s9e-mediaembed="googledrive" style="display:inline-block;width:100%;max-width:640px"><span style="display:block;overflow:hidden;position:relative;padding-bottom:75%"><iframe allowfullscreen="" loading="lazy" scrolling="no" src="//drive.google.com/file/d/12EytSJTBP-fxKv72TJSm1F10jaDvSPtv/preview" style="border:0;height:100%;left:0;position:absolute;width:100%"></iframe></span></span></div><div class="quoteExpand quoteCut">Click to expand...</div></blockquote>
</aside>
</div>
<div class="bbCodeBlock bbCodeQuote">
<aside>
<blockquote class="quoteContainer"><div class="quote"><span style="font-family: 'Arial'"><span style="font-size: 15px"><b>Accessibility</b></span></span><br>
<b>Audio languages:</b> English<br>
<b>Subtitles:</b> English (CC)</div><div class="quoteExpand">Click to expand...</div></blockquote>
</aside>
</div>
<div class="bbCodeBlock bbCodeQuote">
<aside>
<blockquote class="quoteContainer"><div class="quote"><b><span style="font-size: 15px"><span style="font-family: 'Arial'">Source</span></span></b><br>
<img src="https://i.imgur.com/RoBspgv.png" class="bbCodeImage LbImage" alt="[​IMG]" data-url="https://i.imgur.com/RoBspgv.png" style=""></div><div class="quoteExpand">Click to expand...</div></blockquote>
</aside>
</div>
<div class="bbCodeBlock bbCodeQuote">
<aside>
<blockquote class="quoteContainer"><div class="quote"><b><b><span style="font-size: 15px">Release Name</span></b></b><br>
The.Cutting.Edge.1992.1080p.PMTP.WEB-DL.DDP5.1.x264-Samuel</div><div class="quoteExpand">Click to expand...</div></blockquote>
</aside>
</div>
<div class="ToggleTriggerAnchor bbCodeSpoilerContainer">
<button type="button" class="button bbCodeSpoilerButton ToggleTrigger Tooltip JsOnly" data-target="> .SpoilerTarget"><span>Spoiler: <span class="SpoilerTitle">Media Information</span></span></button>
<div class="SpoilerTarget bbCodeSpoilerText">General<br>
Complete name : The.Cutting.Edge.1992.1080p.PMTP.WEB-DL.DDP5.1.x264-Samuel.mkv<br>
Format : Matroska<br>
Format version : Version 4<br>
File size : 3.33 GiB<br>
Duration : 1 h 41 min<br>
Overall bit rate : 4 682 kb/s<br>
Frame rate : 23.976 FPS<br>
Encoded date : 2023-09-03 10:24:50 UTC<br>
Writing application : mkvmerge v72.0.0 ('Minuano (Six-eight)') 64-bit<br>
Writing library : libebml v1.4.4 + libmatroska v1.7.1<br>
<br>
Video<br>
ID : 1<br>
Format : AVC<br>
Format/Info : Advanced Video Codec<br>
Format profile : High@L4<br>
Format settings : CABAC / 4 Ref Frames<br>
Format settings, CABAC : Yes<br>
Format settings, Reference frames : 4 frames<br>
Codec ID : V_MPEG4/ISO/AVC<br>
Duration : 1 h 41 min<br>
Bit rate : 4 500 kb/s<br>
Width : 1 920 pixels<br>
Height : 1 080 pixels<br>
Display aspect ratio : 16:9<br>
Frame rate mode : Constant<br>
Frame rate : 23.976 (24000/1001) FPS<br>
Color space : YUV<br>
Chroma subsampling : 4:2:0<br>
Bit depth : 8 bits<br>
Scan type : Progressive<br>
Bits/(Pixel*Frame) : 0.091<br>
Stream size : 3.19 GiB (96%)<br>
Writing library : x264 core 164 r3095 baee400<br>
Encoding settings : cabac=1 / ref=4 / deblock=1:0:0 / analyse=0x3:0x113 / me=hex / subme=8 / psy=1 / psy_rd=1.00:0.00 / mixed_ref=1 / me_range=16 / chroma_me=1 / trellis=2 / 8x8dct=1 / cqm=0 / deadzone=21,11 / fast_pskip=1 / chroma_qp_offset=-2 / threads=12 / lookahead_threads=2 / sliced_threads=0 / nr=0 / decimate=1 / interlaced=0 / bluray_compat=0 / stitchable=1 / constrained_intra=0 / bframes=3 / b_pyramid=2 / b_adapt=1 / b_bias=0 / direct=3 / weightb=1 / open_gop=0 / weightp=2 / keyint=48 / keyint_min=4 / scenecut=0 / intra_refresh=0 / rc_lookahead=48 / rc=2pass / mbtree=1 / bitrate=4500 / ratetol=1.0 / qcomp=0.60 / qpmin=0 / qpmax=69 / qpstep=4 / cplxblur=20.0 / qblur=0.5 / vbv_maxrate=5400 / vbv_bufsize=4500 / nal_hrd=none / filler=0 / ip_ratio=1.40 / aq=1:1.00<br>
Default : Yes<br>
Forced : No<br>
Color range : Limited<br>
Color primaries : BT.709<br>
Transfer characteristics : BT.709<br>
Matrix coefficients : BT.709<br>
<br>
Audio<br>
ID : 2<br>
Format : E-AC-3<br>
Format/Info : Enhanced AC-3<br>
Commercial name : Dolby Digital Plus<br>
Codec ID : A_EAC3<br>
Duration : 1 h 41 min<br>
Bit rate mode : Constant<br>
Bit rate : 192 kb/s<br>
Channel(s) : 6 channels<br>
Channel layout : L R C LFE Ls Rs<br>
Sampling rate : 48.0 kHz<br>
Frame rate : 31.250 FPS (1536 SPF)<br>
Compression mode : Lossy<br>
Stream size : 140 MiB (4%)<br>
Language : English<br>
Service kind : Complete Main<br>
Default : Yes<br>
Forced : No<br>
<br>
Text<br>
ID : 3<br>
Format : UTF-8<br>
Codec ID : S_TEXT/UTF8<br>
Codec ID/Info : UTF-8 Plain Text<br>
Duration : 1 h 40 min<br>
Bit rate : 71 b/s<br>
Frame rate : 0.272 FPS<br>
Count of elements : 1648<br>
Stream size : 52.8 KiB (0%)<br>
Title : SDH<br>
Language : English<br>
Default : No<br>
Forced : No<br>
<br>
Menu<br>
01:37:45.000 : en:Credits</div>
</div><br>
<b>Screenshots</b><br>
<img src="https://i.imgur.com/GDCc2Ta.png" class="bbCodeImage LbImage" alt="[​IMG]" data-url="https://i.imgur.com/GDCc2Ta.png" style=""><br>
<br>
<b>Download</b><br>
<div class="bbCodeBlock bbCodeVfcHH HiddenContent">
<div class="attribution type">Hidden Content:</div>
<blockquote>You must reply before you can see the hidden data contained here.</blockquote>
</div></div>
<div class="messageTextEndMarker">&nbsp;</div>
</blockquote>
</article>]]></description>
                <author><![CDATA[Samuel]]></author>
                </item>

                </channel></rss>